  <svg 
    version="1.1" 
    id="Layer_1" 
    xmlns="http://www.w3.org/2000/svg" 
    xmlns:xlink="http://www.w3.org/1999/xlink" 
    viewBox="0 0 64 64" 
    xml:space="preserve" 
    width="200px" 
    height="100px">
    <style type="text/css">
      .st0 { fill: #4CAF50; }
      .st1 { fill: #4CAF50; }
      .st2 { fill: #2E7D32; }
    </style>
    <g id="OnlineModule">
      <path className="st0" d="M8,8h48c2.209,0,4,1.791,4,4v40c0,2.209-1.791,4-4,4H8c-2.209,0-4-1.791-4-4V12C4,9.791,5.791,8,8,8z"/>
      <path className="st1" d="M12,8v48h40V8H12z"/>
      <path className="st2" d="M16,16h32v8H16V16z"/>
      <path className="st0" d="M16,32h32v8H16V32z"/>
      <path className="st2" d="M16,48h32v8H16V48z"/>
      <path className="st1" d="M32,38c-3.309,0-6.371-1.292-8.707-3.707c-1.174-1.173-1.173-3.071,0-4.242c1.174-1.173,3.071-1.173,4.242,0C29.47,31.471,30.707,32,32,32s2.53-0.529,3.465-1.465c1.171-1.173,3.069-1.173,4.242,0c1.173,1.173,1.173,3.069,0,4.242C38.371,36.708,35.309,38,32,38z"/>
      <path className="st2" d="M32,46c-5.522,0-10.707-2.148-14.142-5.657c-1.172-1.172-1.172-3.069,0-4.242c1.173-1.173,3.07-1.173,4.242,0C24.007,38.53,27.007,40,30,40s5.993-1.47,8.485-4.899c1.173-1.173,3.07-1.173,4.242,0c1.172,1.173,1.172,3.069,0,4.242C42.707,43.852,37.522,46,32,46z"/>
      <path className="st0" d="M32,54c-7.733,0-14.942-3.009-20.485-8.551c-1.173-1.172-1.173-3.069,0-4.242c1.173-1.173,3.07-1.173,4.242,0C21.007,45.53,26.007,48,32,48s10.993-2.47,16.243-7.657c1.173-1.173,3.07-1.173,4.242,0c1.173,1.173,1.173,3.069,0,4.242C46.942,50.991,39.733,54,32,54z"/>
    </g>
  </svg>